HIERARCHY
ROOT Hips
{
	OFFSET -0.001795 -0.223333 0.028219
	CHANNELS 6 Xposition Yposition Zposition Zrotation Yrotation Xrotation 
	JOINT LeftUpLeg
	{
		OFFSET 0.069520 -0.091406 -0.006815
		CHANNELS 3 Zrotation Yrotation Xrotation
		JOINT LeftLeg
		{
			OFFSET 0.034277 -0.375199 -0.004496
			CHANNELS 3 Zrotation Yrotation Xrotation
			JOINT LeftFoot
			{
				OFFSET -0.013596 -0.397961 -0.043693
				CHANNELS 3 Zrotation Yrotation Xrotation
				JOINT LeftToe
				{
					OFFSET 0.026358 -0.055791 0.119288
					CHANNELS 3 Zrotation Yrotation Xrotation
					End Site
					{
						OFFSET 0.000000 0.000000 0.000000
					}
				}
			}
		}
	}
	JOINT RightUpLeg
	{
		OFFSET -0.067670 -0.090522 -0.004320
		CHANNELS 3 Zrotation Yrotation Xrotation
		JOINT RightLeg
		{
			OFFSET -0.038290 -0.382569 -0.008850
			CHANNELS 3 Zrotation Yrotation Xrotation
			JOINT RightFoot
			{
				OFFSET 0.015774 -0.398415 -0.042312
				CHANNELS 3 Zrotation Yrotation Xrotation
				JOINT RightToe
				{
					OFFSET -0.025372 -0.048144 0.123348
					CHANNELS 3 Zrotation Yrotation Xrotation
					End Site
					{
						OFFSET 0.000000 0.000000 0.000000
					}
				}
			}
		}
	}
	JOINT Spine
	{
		OFFSET -0.002533 0.108963 -0.026696
		CHANNELS 3 Zrotation Yrotation Xrotation
		JOINT Spine1
		{
			OFFSET 0.005487 0.135180 0.001092
			CHANNELS 3 Zrotation Yrotation Xrotation
			JOINT Spine2
			{
				OFFSET 0.001457 0.052922 0.025425
				CHANNELS 3 Zrotation Yrotation Xrotation
				JOINT Neck
				{
					OFFSET -0.002778 0.213870 -0.042857
					CHANNELS 3 Zrotation Yrotation Xrotation
					JOINT Head
					{
						OFFSET 0.005152 0.064970 0.051349
						CHANNELS 3 Zrotation Yrotation Xrotation
						End Site
						{
							OFFSET 0.000000 0.000000 0.000000
						}
					}
				}
				JOINT LeftShoulder
				{
					OFFSET 0.078845 0.121749 -0.034090
					CHANNELS 3 Zrotation Yrotation Xrotation
					JOINT LeftArm
					{
						OFFSET 0.090977 0.030469 -0.008868
						CHANNELS 3 Zrotation Yrotation Xrotation
						JOINT LeftForeArm
						{
							OFFSET 0.259612 -0.012772 -0.027456
							CHANNELS 3 Zrotation Yrotation Xrotation
							JOINT LeftHand
							{
								OFFSET 0.249234 0.008986 -0.001171
								CHANNELS 3 Zrotation Yrotation Xrotation
								End Site
								{
									OFFSET 0.000000 0.000000 0.000000
								}
							}
						}
					}
				}
				JOINT RightShoulder
				{
					OFFSET -0.081759 0.118833 -0.038615
					CHANNELS 3 Zrotation Yrotation Xrotation
					JOINT RightArm
					{
						OFFSET -0.096012 0.032551 -0.009143
						CHANNELS 3 Zrotation Yrotation Xrotation
						JOINT RightForeArm
						{
							OFFSET -0.253742 -0.013329 -0.021401
							CHANNELS 3 Zrotation Yrotation Xrotation
							JOINT RightHand
							{
								OFFSET -0.255298 0.007772 -0.005559
								CHANNELS 3 Zrotation Yrotation Xrotation
								End Site
								{
									OFFSET 0.000000 0.000000 0.000000
								}
							}
						}
					}
				}
			}
		}
	}
}
MOTION
Frames: 13
Frame Time: 0.050000
0.092240 0.917141 -0.084343 -1.397220 20.669939 2.576851 10.200147 -0.726871 -3.373068 -5.697948 0.316850 0.700152 3.977287 9.385884 3.431760 0.000000 0.000000 0.000000 -8.277913 -0.096429 -7.374639 1.364273 -0.206810 6.148152 -3.836396 -9.687965 5.977510 0.000000 0.000000 0.000000 -0.722784 0.004884 -0.066934 5.161457 -3.480253 5.225735 -5.759343 1.491362 1.520009 4.724999 -2.883688 -3.594070 0.000000 0.000000 0.000000 -23.133767 -4.976379 -3.800773 -36.372583 -3.416477 -1.753313 -43.995790 -54.644296 22.680194 0.000000 0.000000 0.000000 21.995876 -1.085171 1.016353 46.569224 1.676894 -4.599481 20.918802 39.879527 10.443352 0.000000 0.000000 0.000000 
0.086997 0.916818 -0.086147 -1.285443 25.616997 2.231343 10.815651 -0.888275 -3.966326 -5.944014 0.234759 -0.010551 1.721396 5.513151 3.528055 0.000000 0.000000 0.000000 -8.320047 -0.276509 -5.094479 2.257488 -0.429561 4.413603 -5.709312 -13.601227 6.512663 0.000000 0.000000 0.000000 -1.263223 -0.003358 0.253318 5.515688 -3.697478 4.638488 -6.663772 5.144577 1.841337 7.518848 -4.984671 -3.273924 0.000000 0.000000 0.000000 -21.620152 -3.324016 -6.102519 -35.984854 3.053244 -3.234488 -47.982629 -51.777019 22.112043 0.000000 0.000000 0.000000 22.890733 -2.050124 2.292884 45.655722 2.737311 -4.626246 21.530910 39.836040 11.267226 0.000000 0.000000 0.000000 
0.080220 0.917236 -0.087984 -0.802850 29.141632 2.159139 10.385832 -0.931710 -4.551848 -5.109173 0.152281 -0.459995 -0.114891 2.766284 4.194960 0.000000 0.000000 0.000000 -8.371655 -0.421248 -3.122703 2.603645 -0.499644 2.290105 -7.059327 -16.382307 7.178510 0.000000 0.000000 0.000000 -2.008350 -0.006979 0.238597 5.752774 -3.911496 4.557086 -7.066743 7.528254 1.879333 8.412636 -6.279337 -1.547624 0.000000 0.000000 0.000000 -20.796065 -2.763237 -7.201980 -35.681225 7.021988 -4.209129 -47.444389 -47.546426 19.136384 0.000000 0.000000 0.000000 22.675349 -1.368202 3.823490 46.235269 3.409371 -4.548445 20.090441 40.549142 11.167919 0.000000 0.000000 0.000000 
0.071881 0.916528 -0.089590 -0.788179 32.983848 1.401311 10.773813 -1.045922 -4.422253 -4.881001 0.075142 -1.551488 -2.098276 -0.131825 4.901169 0.000000 0.000000 0.000000 -7.860831 -0.556670 -0.961742 2.991204 -0.594135 0.734241 -8.493150 -19.484323 7.538390 0.000000 0.000000 0.000000 -2.583807 -0.030745 1.075869 6.764163 -4.554923 4.343422 -7.810404 9.115858 1.475022 8.567229 -6.950880 -0.284247 0.000000 0.000000 0.000000 -19.186281 -2.339350 -7.606641 -36.387629 9.608876 -5.145023 -45.902124 -44.142322 16.334756 0.000000 0.000000 0.000000 22.730164 -1.376939 4.774253 47.451112 4.629300 -4.222979 17.434889 39.065655 9.793303 0.000000 0.000000 0.000000 
0.062720 0.916617 -0.091605 -0.553506 36.294176 1.152203 11.021846 -1.144395 -5.048473 -4.887401 0.010040 -2.001879 -4.008582 -2.380883 6.139717 0.000000 0.000000 0.000000 -6.982209 -0.628183 0.435424 2.356702 -0.488310 -0.641203 -9.879665 -22.344081 8.251092 0.000000 0.000000 0.000000 -3.005365 -0.046594 1.369926 7.541472 -5.132873 4.393167 -8.653075 10.956928 1.383819 9.330087 -8.043134 0.491597 0.000000 0.000000 0.000000 -18.271015 -2.919943 -7.840481 -37.063034 10.225691 -5.404612 -41.738039 -40.829924 12.841304 0.000000 0.000000 0.000000 22.004732 -0.915142 5.887362 49.721351 5.576641 -3.842747 14.389048 37.409996 8.286546 0.000000 0.000000 0.000000 
0.053635 0.917004 -0.094006 -0.835653 38.906105 0.320135 11.790936 -1.292141 -4.876206 -5.190809 -0.081510 -3.142299 -5.714344 -3.919885 7.656206 0.000000 0.000000 0.000000 -5.857506 -0.660852 1.434182 1.911930 -0.424691 -1.138489 -11.005781 -24.590498 8.967428 0.000000 0.000000 0.000000 -2.674293 -0.069372 2.306682 8.112474 -5.468413 4.096212 -9.253657 12.223245 1.180096 9.028721 -8.395738 1.551324 0.000000 0.000000 0.000000 -17.660278 -3.872036 -7.806747 -38.597809 11.149042 -5.982211 -38.145449 -38.669986 10.476915 0.000000 0.000000 0.000000 21.966814 -1.039183 6.479847 50.465077 6.617031 -3.410404 12.571710 35.601432 7.165277 0.000000 0.000000 0.000000 
0.045307 0.917575 -0.096971 -0.569749 40.910586 0.254837 11.743529 -1.324073 -5.624798 -5.075565 -0.117268 -3.196558 -7.109375 -5.028899 8.975723 0.000000 0.000000 0.000000 -5.555899 -0.690391 1.557763 1.850210 -0.428665 -1.156198 -11.915760 -26.315526 9.517299 0.000000 0.000000 0.000000 -2.543149 -0.081894 2.656980 8.930104 -5.973939 3.911207 -10.187008 12.728578 1.391340 9.039834 -8.680271 1.932280 0.000000 0.000000 0.000000 -16.701591 -4.200313 -7.554676 -40.880591 11.236271 -6.672312 -34.504660 -36.907388 8.543706 0.000000 0.000000 0.000000 21.214388 0.224405 7.481144 51.923005 8.022765 -2.629216 9.878621 34.004232 5.785695 0.000000 0.000000 0.000000 
0.038142 0.918662 -0.100156 -0.549032 42.698413 0.199437 12.374230 -1.449391 -6.278836 -5.964912 -0.220930 -3.625065 -8.416458 -5.600832 10.668642 0.000000 0.000000 0.000000 -4.986537 -0.710882 1.994271 1.501991 -0.378001 -2.138313 -12.852689 -27.691215 10.707657 0.000000 0.000000 0.000000 -2.308448 -0.098330 3.141113 9.228592 -6.066616 3.476397 -10.371834 13.505656 1.467002 8.618820 -8.639745 2.406918 0.000000 0.000000 0.000000 -16.280505 -4.705935 -7.527652 -42.229189 11.708125 -7.229572 -32.023908 -35.704478 7.336956 0.000000 0.000000 0.000000 21.652801 -0.155743 7.854541 52.357352 9.074471 -2.257325 8.693209 32.734142 5.133956 0.000000 0.000000 0.000000 
0.031871 0.919599 -0.103692 -0.152008 44.332332 0.596953 12.453269 -1.505795 -7.225753 -6.553575 -0.309492 -3.779627 -9.608959 -6.068262 12.213986 0.000000 0.000000 0.000000 -5.234236 -0.755501 1.798631 1.917870 -0.471055 -2.361603 -13.677079 -28.872034 11.552732 0.000000 0.000000 0.000000 -2.155808 -0.108152 3.394648 9.907393 -6.382644 3.022133 -10.987939 13.929801 1.709495 9.113356 -9.110953 2.312929 0.000000 0.000000 0.000000 -15.708377 -5.060535 -7.392892 -43.900437 11.887411 -7.832120 -30.974005 -35.083483 6.700118 0.000000 0.000000 0.000000 21.110114 0.360699 8.377620 53.428881 9.910255 -1.694080 6.586653 31.503571 4.226397 0.000000 0.000000 0.000000 
0.026184 0.920150 -0.107415 0.110943 45.709385 1.133129 12.719290 -1.596105 -8.308377 -7.311863 -0.423886 -3.989605 -10.549170 -6.243475 13.616795 0.000000 0.000000 0.000000 -5.504730 -0.807403 1.701180 2.463934 -0.594408 -3.273003 -14.392546 -29.751962 12.435990 0.000000 0.000000 0.000000 -1.952613 -0.112496 3.489794 10.253014 -6.291967 2.059305 -11.043001 13.996905 2.413808 9.295592 -9.271261 2.219832 0.000000 0.000000 0.000000 -15.675831 -5.256243 -7.563061 -44.857193 12.525822 -8.361364 -31.049898 -34.964842 6.563156 0.000000 0.000000 0.000000 21.103886 0.260218 8.633966 53.859325 10.633001 -1.389894 4.831717 30.824451 3.629738 0.000000 0.000000 0.000000 
0.020486 0.920070 -0.111094 0.517930 46.822856 1.757514 12.687813 -1.646027 -9.215431 -7.718203 -0.523078 -4.332564 -11.319358 -6.356193 14.772902 0.000000 0.000000 0.000000 -5.904293 -0.838143 1.151320 2.993552 -0.708898 -3.388068 -14.968363 -30.610390 12.788299 0.000000 0.000000 0.000000 -1.924340 -0.120342 3.706105 10.693892 -6.317949 1.289878 -11.353546 14.090858 2.735252 9.914703 -9.507137 1.587552 0.000000 0.000000 0.000000 -15.413727 -5.333410 -7.588677 -45.304424 12.833516 -8.670344 -32.685263 -34.556304 6.791564 0.000000 0.000000 0.000000 20.862875 0.154832 8.732309 54.392674 11.262950 -1.008585 2.784195 30.185720 3.012584 0.000000 0.000000 0.000000 
0.014657 0.919912 -0.114450 0.905098 47.194481 2.329636 12.714645 -1.684832 -9.987554 -8.064441 -0.582744 -4.487128 -11.658991 -6.095064 15.641009 0.000000 0.000000 0.000000 -6.392279 -0.863182 0.432828 3.623770 -0.840633 -3.333912 -15.146484 -30.891397 12.729121 0.000000 0.000000 0.000000 -2.072458 -0.115202 3.646643 10.902239 -6.251494 0.720375 -11.062986 13.951305 3.295457 10.584013 -9.713243 0.909309 0.000000 0.000000 0.000000 -15.249766 -5.702411 -7.401487 -45.819101 12.873065 -8.870540 -35.511236 -35.599568 7.697461 0.000000 0.000000 0.000000 20.536779 0.146665 8.598064 54.148476 11.418181 -0.882108 2.430381 30.142374 2.903370 0.000000 0.000000 0.000000 
0.008787 0.919604 -0.117632 1.306616 46.943363 3.058655 12.922538 -1.733772 -10.846186 -8.607113 -0.628241 -4.506556 -11.594629 -5.443870 16.325814 0.000000 0.000000 0.000000 -7.084277 -0.901727 -0.512172 4.527661 -1.025502 -3.350390 -14.983208 -30.639336 12.358693 0.000000 0.000000 0.000000 -2.320208 -0.106480 3.534704 11.128039 -6.522604 1.098235 -11.443373 14.113792 2.777328 11.271637 -9.699696 -0.179518 0.000000 0.000000 0.000000 -15.329451 -5.670077 -7.376468 -44.874173 12.580740 -8.493393 -40.025994 -37.008215 9.424749 0.000000 0.000000 0.000000 20.555588 -0.143293 8.373457 54.023658 11.714499 -0.708756 1.600657 30.303915 2.762711 0.000000 0.000000 0.000000 
